<svg width="382" height="343" viewBox="0 0 382 343" fill="none" xmlns="http://www.w3.org/2000/svg">
<path d="M151.12 10.2518V15.7518H161.12L164.12 14.2518H220.62L235.62 17.7518L234.12 8.25183L229.12 5.75183L224.62 2.75183H172.62H161.12L157.12 5.75183L151.12 10.2518Z" fill="#6495ED" stroke="#6495ED"/>
<path d="M31.3323 88.2518C29.8323 87.2518 30.8323 82.2518 31.3323 79.7518C31.5495 78.6658 41.9723 74.4528 55.6203 71.2518C67.1103 68.5568 81.0313 66.9608 91.6203 64.7518L108.62 71.2518C99.4203 76.0518 93.7873 78.0848 92.6203 78.7518L76.1203 90.7518L60.1203 107.252L55.8323 111.752L43.8323 101.752C40.1653 97.5848 32.5323 89.0518 31.3323 88.2518Z" fill="#B3B3B3" stroke="#B3B3B3" stroke-width="2"/>
<path d="M353.854 79.2518C353.467 77.2518 317.12 67.2518 292.62 63.2518L276.62 70.2518C285.513 75.0518 289.492 77.5848 290.62 78.2518L308.12 91.7518L327.754 112.252L330.171 111.252L341.771 101.252C345.315 97.0848 352.694 88.5518 353.854 87.7518C355.304 86.7518 354.338 81.7518 353.854 79.2518Z" fill="#B3B3B3" stroke="#B3B3B3" stroke-width="2"/>
<path d="M91.1207 63.7518C67.6207 67.0848 35.1327 72.7518 30.3327 80.7518C25.5327 88.7518 44.9537 104.919 56.1207 112.752" stroke="#B3B3B3" stroke-width="3"/>
<path d="M292.62 62.7518C316.12 66.0848 350.108 71.7518 354.908 79.7518C359.708 87.7518 339.075 104.919 327.908 112.752" stroke="#B3B3B3" stroke-width="3"/>
<path d="M322.62 108.252C327.33 106.292 337.84 99.4328 345.72 88.6278C347.455 86.2478 349.81 83.2328 346.869 83.0808C344.517 82.9598 340.237 83.1378 332.76 83.9178C322.12 85.2518 315.047 87.6158 306.12 91.7518" stroke="#646464" stroke-width="1.5"/>
<path d="M49.1201 99.7518L59.6201 106.752L74.1201 91.2518L70.6201 89.7518L66.6201 88.2518L60.6201 87.2518L54.1201 86.2518L46.6201 84.7518L37.6201 84.2518L40.6201 89.2518L49.1201 99.7518Z" fill="#646464" stroke="#646464"/>
<path d="M101.12 75.2518C110.72 71.6518 114.12 72.0848 114.62 72.7518L166.62 79.2518C184.12 79.2518 221.72 78.9518 232.12 77.7518C242.12 78.5518 264.62 73.4188 274.62 70.7518L295.62 81.7518L311.12 97.2518L333.62 120.252L358.12 142.252L377.62 152.752L369.12 158.752L353.12 165.252L366.12 170.252L362.62 173.752C346.12 191.252 316.12 201.752 308.12 204.752C232.633 230.156 219.62 225.752 185.12 227.252C101.12 220.752 92.6201 211.752 71.1201 204.252C49.6201 196.752 30.1201 182.252 26.6201 180.252C23.8201 178.652 17.4534 172.585 14.6201 169.752L25.6201 167.252L28.6201 164.752L14.6201 159.752L4.62012 153.252L28.6201 138.752L47.6201 121.752L63.1201 105.752L79.1201 90.2518C82.4531 86.5848 91.5201 78.8518 101.12 75.2518Z" fill="#B3B3B3" stroke="#B3B3B3"/>
<path d="M114.62 327.152L84.6201 211.123L119.12 220.013L156.62 226.095C167.12 226.719 193.02 227.873 212.62 227.498C232.22 227.124 277.12 216.426 297.12 211.123L277.12 283.641C274.287 296.273 268.32 322.286 267.12 325.28C265.62 329.023 250.12 334.17 241.12 335.105C239.012 335.324 212.62 340.252 179.12 339.784C145.62 339.316 125.62 332.766 121.62 331.83C118.42 331.082 115.62 328.399 114.62 327.152Z" fill="#6495ED" stroke="#6495ED"/>
<path d="M83.6201 209.693L113.678 325.158C116.12 332.766 147.744 340.252 190.369 340.252C232.995 340.252 264.12 333.702 267.061 325.158L297.62 209.252" stroke="#6495ED" stroke-width="3"/>
<path opacity="0.3" d="M110.204 218.952C86.6886 214.233 83.3706 210.331 82.7036 209.86L89.7036 238.352C113.704 248.052 131.704 250.962 159.204 251.447C200.333 252.173 232.4 246.471 248.704 241.509C274.704 233.597 295.057 219.437 296.704 217.497C297.204 216.042 298.037 210.744 298.704 209.252L283.204 215.338L260.704 221.377L226.204 227.197C220.037 227.668 197.704 230.158 165.704 228.167C143.568 226.79 140.204 224.972 110.204 218.952Z" fill="black" stroke="black"/>
<path opacity="0.3" d="M211.62 169.752C211.62 173.071 209.281 177.319 205.233 180.789C201.221 184.228 195.695 186.752 189.62 186.752C183.545 186.752 178.019 184.228 174.007 180.789C169.959 177.319 167.62 173.071 167.62 169.752C167.62 166.524 169.856 163.42 173.863 161.068C177.846 158.73 183.415 157.252 189.62 157.252C195.825 157.252 201.394 158.73 205.377 161.068C209.384 163.42 211.62 166.524 211.62 169.752Z" fill="black" stroke="black" stroke-width="2"/>
<path d="M149.62 36.2518V16.4185C149.62 8.59443 156.336 2.25183 164.62 2.25183H221.62C229.904 2.25183 236.62 8.59443 236.62 16.4185V36.2518M163.62 36.2518V19.2518C163.62 16.6438 165.859 14.5296 168.62 14.5296H217.62C220.381 14.5296 222.62 16.6438 222.62 19.2518V36.2518" stroke="#6495ED" stroke-width="3"/>
<path d="M163.62 34.2518C163.62 34.8038 161.038 35.2518 156.62 35.2518C152.202 35.2518 149.62 34.8038 149.62 34.2518" stroke="#C6DAFC" stroke-width="3"/>
<path d="M236.62 34.2518C236.62 34.8038 234.038 35.2518 229.62 35.2518C225.202 35.2518 222.62 34.8038 222.62 34.2518" stroke="#C6DAFC" stroke-width="3"/>
<path d="M335.332 99.9338L324.113 107.252L308.62 91.0468L312.36 89.4788L316.12 88.2518L322.62 86.2518L329.62 84.7518L338.12 83.7518H347.62L344.62 89.4788L335.332 99.9338Z" fill="#646464" stroke="#646464"/>
<path opacity="0.3" d="M352.12 82.252C343.696 77.198 321.12 80.2518 302.12 85.7518C306.12 91.7518 309.62 90.252 310.62 92.752C311.953 93.585 315.12 97.452 321.12 104.252C327.12 111.052 328.135 112.662 329.62 111.752C345.12 100.252 357.62 86.7518 352.12 82.252Z" fill="black" stroke="black" stroke-width="3"/>
<path d="M60.6205 108.252C55.9755 106.154 46.5995 99.9077 39.2313 89.0777C37.5748 86.6427 35.3107 83.5577 38.2548 83.4937C40.6095 83.4427 44.8815 83.7487 52.3325 84.7517C60.6205 86.2517 67.8205 87.3517 76.6205 91.7517" stroke="#646464" stroke-width="1.5"/>
<path d="M72.516 124.604L60.821 128.873L65.415 132.288L70.427 133.141L73.769 133.995V135.276L68.339 141.252L58.315 149.362L48.291 156.619L57.48 159.18H68.339L80.034 156.619L82.122 155.338H84.211V156.619L82.122 160.034L76.275 165.156H81.287H97.159L110.524 164.302L130.155 159.18L141.015 154.485L148.115 149.362L155.216 144.667L162.734 135.276L165.24 132.288L167.746 124.604V113.079L165.24 104.542L159.81 96.0048C157.722 94.4388 153.545 91.2238 153.545 90.8818C153.545 90.5408 145.191 87.8938 141.015 86.6138C137.952 86.4708 130.907 86.3568 127.231 87.0398C123.556 87.7228 116.789 90.1708 113.866 91.3088L105.095 98.1388L93.4 108.384L84.211 116.921L72.516 124.604Z" fill="#646464" stroke="#646464"/>
<path d="M114.701 90.8818C106.348 95.1508 93.8172 107.103 90.4762 110.518C89.1482 111.875 85.2393 115.133 81.2873 118.201C78.3753 120.462 75.1873 122.599 73.7693 123.324C70.4613 125.014 67.1542 127.122 58.5802 128.407C58.4892 128.42 58.4582 128.539 58.5362 128.588C61.6732 130.594 68.5912 134.319 73.1632 134.42C73.2442 134.422 73.2933 134.507 73.2463 134.573C71.1293 137.548 63.0852 145.834 46.7512 156.533C46.6902 156.573 46.6872 156.662 46.7492 156.7C49.0562 158.116 54.5022 160.034 60.4032 160.034C63.3272 160.034 70.1772 159.778 74.1873 158.753C77.9143 157.801 81.8113 156.774 83.4593 155.949C83.5513 155.903 83.6552 156.006 83.6022 156.095C82.3382 158.212 79.1083 162.476 74.7413 165.076C74.6783 165.113 74.6753 165.201 74.7413 165.233C75.3613 165.532 77.3073 166.01 81.2873 166.01H92.9822C94.2352 166.01 109.689 164.729 113.866 163.875C118.043 163.022 123.89 162.168 132.243 158.753C140.456 155.396 140.573 155.503 149.786 149.362C168.164 136.129 172.742 118.632 164.318 102.228C155.893 85.8247 133.492 80.8798 114.283 91.1838" stroke="#646464" stroke-width="2"/>
<path d="M308.489 125.05L320.184 129.319L315.589 132.734L310.577 133.588L307.236 134.441V135.722L312.666 141.698L322.69 149.808L332.714 157.065L323.525 159.626H312.666L300.971 157.065L298.882 155.784H296.794V157.065L298.882 160.48L304.73 165.602H299.718H283.846L270.48 164.749L250.85 159.626L239.99 154.931L232.89 149.808L225.789 145.113L218.271 135.722L215.765 132.734L213.259 125.05V113.525L215.765 104.988L221.195 96.4507C223.283 94.8857 227.46 91.6697 227.46 91.3277C227.46 90.9867 235.813 88.3397 239.99 87.0597C243.053 86.9167 250.098 86.8037 253.773 87.4867C257.449 88.1697 264.215 90.6167 267.139 91.7547L275.91 98.5847L287.605 108.83L296.794 117.367L308.489 125.05Z" fill="#646464" stroke="#646464"/>
<path d="M266.304 91.3277C274.657 95.5967 287.187 107.549 290.529 110.964C291.857 112.321 295.766 115.579 299.718 118.647C302.63 120.908 305.818 123.045 307.236 123.77C310.543 125.46 313.851 127.568 322.424 128.853C322.515 128.867 322.547 128.985 322.469 129.034C319.332 131.04 312.414 134.765 307.841 134.866C307.761 134.868 307.712 134.953 307.759 135.019C309.875 137.995 317.92 146.28 334.254 156.979C334.314 157.019 334.317 157.108 334.255 157.146C331.948 158.562 326.503 160.48 320.601 160.48C317.678 160.48 310.828 160.224 306.818 159.199C303.09 158.247 299.194 157.221 297.546 156.395C297.454 156.349 297.35 156.452 297.402 156.541C298.667 158.658 301.897 162.923 306.264 165.522C306.327 165.559 306.329 165.647 306.263 165.679C305.644 165.978 303.698 166.456 299.718 166.456H288.023C286.77 166.456 271.316 165.175 267.139 164.322C262.962 163.468 257.115 162.614 248.761 159.199C240.549 155.842 240.431 155.949 231.219 149.808C212.841 136.576 208.262 119.078 216.687 102.675C225.112 86.2708 247.513 81.3258 266.721 91.6298" stroke="#646464" stroke-width="2"/>
<path d="M270.62 71.2518C278.351 72.5848 290.135 72.0518 321.847 107.252C353.339 142.208 373.297 151.786 379.492 152.244C379.538 152.247 379.553 152.303 379.516 152.331C375.511 155.359 364.839 162.029 353.187 165.216C353.141 165.228 353.134 165.29 353.177 165.31C355.06 166.219 359.27 169.226 367.513 169.252C367.555 169.252 367.583 169.297 367.556 169.33C349.453 191.171 276.017 227.252 189.62 227.252C103.223 227.252 31.783 191.171 13.6847 169.33C13.6578 169.297 13.6837 169.252 13.726 169.252C20.0609 169.224 27.0652 166.692 29.0642 165.807C29.1071 165.788 29.0988 165.728 29.0537 165.716C17.401 162.529 6.72947 155.859 2.72467 152.831C2.68767 152.803 2.70187 152.747 2.74827 152.744C8.94327 152.286 28.9016 142.708 60.3933 107.752C92.1053 72.5518 107.889 73.5848 115.62 72.2518" stroke="#B3B3B3" stroke-width="3"/>
<path d="M135.12 130.752C141.195 130.752 146.12 125.827 146.12 119.752C146.12 113.677 141.195 108.752 135.12 108.752C129.045 108.752 124.12 113.677 124.12 119.752C124.12 125.827 129.045 130.752 135.12 130.752Z" fill="black" stroke="black" stroke-width="3"/>
<path d="M245.12 130.752C251.195 130.752 256.12 125.827 256.12 119.752C256.12 113.677 251.195 108.752 245.12 108.752C239.045 108.752 234.12 113.677 234.12 119.752C234.12 125.827 239.045 130.752 245.12 130.752Z" fill="black" stroke="black" stroke-width="3"/>
<path d="M212.62 166.752C212.62 170.071 210.281 174.319 206.233 177.789C202.221 181.228 196.695 183.752 190.62 183.752C184.545 183.752 179.019 181.228 175.007 177.789C170.959 174.319 168.62 170.071 168.62 166.752C168.62 163.524 170.856 160.42 174.863 158.068C178.846 155.73 184.415 154.252 190.62 154.252C196.825 154.252 202.394 155.73 206.377 158.068C210.384 160.42 212.62 163.524 212.62 166.752Z" fill="#3D3D3D" stroke="#3D3D3D" stroke-width="2"/>
<path d="M298.621 45.2518C298.621 53.6148 298.53 61.3298 282.621 67.2518C262.81 74.6268 223.703 79.2518 190.621 79.2518C130.974 79.2518 83.1207 69.5298 83.1207 50.7518C83.1207 42.4768 79.6207 29.2518 97.1207 25.2518C116.932 17.7692 157.26 11.2518 190.621 11.2518C219.813 11.2518 253.356 15.9289 273.621 21.2518C294.764 26.8048 301.94 33.2528 298.621 45.2518Z" fill="#6495ED"/>
<path d="M298.62 36.7519C298.62 50.2829 250.267 61.2519 190.62 61.2519C130.973 61.2519 82.6201 50.2829 82.6201 36.7519M298.62 36.7519L298.12 54.7519C298.12 68.2829 250.267 79.2519 190.62 79.2519C130.973 79.2519 83.1201 68.2829 83.1201 54.7519L82.6201 36.7519M298.62 36.7519C298.62 26.9529 273.262 18.4977 236.62 14.5789M82.6201 36.7519C82.6201 26.5129 110.305 17.7416 149.62 14.079" stroke="#6495ED" stroke-width="3"/>
<g opacity="0.3">
<path d="M29.1204 81.752C33.9204 73.752 79.4694 69.3379 79.4694 69.3379L86.7244 72.7519L97.1204 76.1609C96.2814 76.2519 91.2814 78.6889 88.2814 80.7519C81.8814 85.1519 76.1204 89.9189 74.1204 91.7519C73.1084 92.6239 69.6774 95.7789 65.1674 100.552C64.5074 101.252 63.8234 101.985 63.1204 102.752C62.4164 103.52 61.3474 104.474 60.6204 105.252C57.1204 109.252 53.6204 113.252 53.1204 113.252C42.6204 104.752 24.3204 89.752 29.1204 81.752Z" fill="black"/>
<path d="M184.621 75.2518C244.818 75.2518 280.621 68.7518 297.121 56.7518C297.121 61.2508 290.121 69.2518 281.121 72.7518C262.121 80.7518 226.473 85.7518 185.621 85.7518C138.834 85.7518 96.3716 79.1068 79.4696 69.3378C74.6206 66.2518 75.6206 67.2518 72.6206 65.2518L75.1206 64.7518L81.1206 63.7518L87.6206 62.7518H89.1206C95.6206 66.7518 93.6206 61.2518 107.121 66.2518C127.621 71.2518 154.308 75.2518 184.621 75.2518Z" fill="black"/>
<path d="M190.626 61.6168C250.822 61.6168 300.121 50.2608 300.121 36.2518V45.7518L299.621 55.2518C299.621 59.7508 294.621 64.7518 285.621 68.2518C270.621 75.2518 230.621 81.2518 190.121 80.7518C129.925 80.7518 82.1206 69.7518 81.6206 55.2518L81.1286 36.0578C81.1236 35.9558 81.1206 35.8538 81.1206 35.7518L81.1286 36.0578C81.8406 49.9328 130.868 61.6168 190.626 61.6168Z" fill="black"/>
</g>
<g opacity="0.3">
<path d="M150.62 9.25215C152.625 7.22645 154.159 6.66785 158.152 6.66175L198.91 6.50485C206.557 6.47535 220.361 6.35645 224.519 7.10085C228.677 7.84525 230.915 10.3139 231.63 11.1581C235.154 15.3167 233.56 24.8419 233.054 25.2979C233.036 25.3139 233.012 25.3279 232.981 25.3419L227.144 28.863C227.128 28.873 227.11 28.878 227.092 28.878H143.695C143.675 28.878 143.668 28.8509 143.685 28.8409L149.298 25.634L149.331 18.7237L149.354 13.7829C149.499 13.1754 149.057 10.8311 150.62 9.25215Z" fill="black"/>
<path d="M232.989 25.2609C232.482 25.7169 226.061 25.2719 222.901 25.3019C220.954 25.3199 211.675 25.0799 205.404 25.3799L180.453 25.476C172.138 25.559 164.484 25.5379 156.999 25.5669H149.055M232.989 25.2609C233.495 24.8049 235.089 15.2797 231.565 11.1211C230.85 10.2769 228.612 7.80825 224.454 7.06385C220.296 6.31945 206.492 6.43835 198.845 6.46785L158.087 6.62475C154.094 6.63085 152.055 7.21483 150.555 9.21515C149.12 11.7518 149.12 12.7518 149.055 13.7148V18.7148V22.2148V25.5669M232.989 25.2609L227.079 28.8259C227.063 28.8359 227.045 28.8409 227.027 28.8409H143.63C143.61 28.8409 143.603 28.8139 143.62 28.8039L149.055 25.5669" stroke="black"/>
</g>
</svg>
